<svg className="svg-defs" aria-hidden="true">
  <symbol id="logo" viewBox="0 0 168 48.01">
    <path fill="currentColor" d="M31.64,1.28l2.31,4.35h-4.66l2.34-4.35ZM30.68,0l-4.81,8.98h1.65l1.05-2.01h6.12l1.05,2.01h1.65L32.58,0h-1.9Z"/>
    <path fill="currentColor" d="M48.09,0v7.37l-6.94-7.37h-1.87v8.98h1.5V1.62l6.94,7.37h1.88V0h-1.51Z"/>
    <path fill="currentColor" d="M61.64,0v7.37l-6.94-7.37h-1.87v8.98h1.5V1.62l6.94,7.37h1.87V0h-1.5Z"/>
    <path fill="currentColor" d="M70.81,1.28l2.31,4.35h-4.66l2.34-4.35ZM69.85,0l-4.8,8.98h1.65l1.05-2.01h6.12l1.05,2.01h1.65l-4.8-8.98h-1.9Z"/>
    <path fill="currentColor" d="M96.34,0l-4.37,5.43-4.36-5.43h-1.89v8.98h1.5V1.63h.04l4.68,5.85,4.72-5.85h.04v7.35h1.5V0h-1.88Z"/>
    <path fill="currentColor" d="M105.89,1.28l2.32,4.35h-4.66l2.35-4.35h0ZM104.92,0l-4.81,8.98h1.65l1.05-2.01h6.13l1.05,2.01h1.65l-4.81-8.98h-1.9Z"/>
    <path fill="currentColor" d="M123.83,8.98h-1.75l-2.46-3.42h-4.59v3.42h-1.5V0h7.17c.96,0,1.7.25,2.24.76.54.51.81,1.2.81,2.07,0,.76-.22,1.37-.67,1.83-.41.43-.97.71-1.69.82l2.43,3.5h0ZM120.47,4.22c1.16,0,1.75-.46,1.75-1.39,0-.99-.63-1.49-1.89-1.49h-5.3v2.87h5.44Z"/>
    <path fill="currentColor" d="M128.71,0h-1.5v8.97h1.5V0Z"/>
    <path fill="currentColor" d="M142.11,8.98h-1.65l-1.05-2.01h-6.12l-1.05,2.01h-1.65l4.8-8.98h1.89l4.81,8.97h0ZM138.68,5.63l-2.32-4.35-2.34,4.35h4.66Z"/>
    <path fill="currentColor" d="M22.4,33.33h-2.7v-13.16h-.07l-8.47,10.49L2.77,20.17h-.07v13.16H0v-16.1h3.37l7.81,9.73,7.85-9.73h3.37v16.1Z"/>
    <path fill="currentColor" d="M47.42,33.33h-2.96l-1.88-3.6h-10.98l-1.88,3.6h-2.95l8.62-16.1h3.4l8.62,16.1h0ZM41.28,27.33l-4.16-7.8-4.21,7.8h8.36Z"/>
    <path fill="currentColor" d="M67.92,33.33h-17.72v-2.4l13.47-11.27h-13.27v-2.43h16.92v2.43l-13.43,11.25,14.04.02v2.4Z"/>
    <path fill="currentColor" d="M91.34,33.33h-2.95l-1.88-3.6h-10.98l-1.88,3.6h-2.95l8.62-16.1h3.4l8.62,16.1ZM85.2,27.33l-4.16-7.8-4.2,7.8h8.35Z"/>
    <path fill="currentColor" d="M114.19,33.33h-3.14l-4.41-6.14h-8.23v6.14h-2.7v-16.1h12.85c1.71,0,3.05.45,4.03,1.37.97.91,1.46,2.15,1.46,3.7,0,1.36-.4,2.46-1.2,3.29-.74.77-1.74,1.26-3.03,1.47l4.36,6.27h0ZM108.17,24.79c2.09,0,3.13-.83,3.13-2.49,0-1.78-1.12-2.67-3.38-2.67h-9.5v5.16h9.75Z"/>
    <path fill="currentColor" d="M137.97,33.33h-2.96l-1.88-3.6h-10.98l-1.88,3.6h-2.95l8.62-16.1h3.4l8.62,16.1h0ZM131.83,27.33l-4.16-7.8-4.21,7.8h8.36Z"/>
    <path fill="currentColor" d="M161.26,33.33h-3.47l-7.8-8.46-4.94,3.57v4.89h-2.7v-16.1h2.7v8.34l11.41-8.34h3.91l-8.34,6.09,9.23,10.01Z"/>
    <path fill="currentColor" d="M168,17.23h-2.7v16.1h2.7v-16.1Z"/>
    <path fill="currentColor" d="M59.96,47.85h-1.13l-.72-1.38h-4.21l-.72,1.38h-1.13l3.31-6.17h1.31l3.31,6.17h0ZM57.61,45.55l-1.6-2.99-1.61,2.99h3.21Z"/>
    <path fill="currentColor" d="M69.69,42.61h-2.98v5.25h-1.03v-5.25h-2.99v-.92h7.01v.92Z"/>
    <path fill="currentColor" d="M80.39,47.85h-1.03v-2.74h-5v2.74h-1.04v-6.17h1.04v2.51h5v-2.51h1.03v6.17Z"/>
    <path fill="currentColor" d="M91.44,47.85h-6.54v-6.17h6.3v.93h-5.26v1.58h3.66v.92h-3.66v1.82h5.5v.92Z"/>
    <path fill="currentColor" d="M102.51,47.85h-1.29l-4.77-5.06v5.06h-1.04v-6.17h1.29l4.77,5.07v-5.07h1.04v6.17Z"/>
    <path fill="currentColor" d="M112.49,43.13c-.92-.47-1.87-.7-2.83-.7-.64,0-1.13.07-1.47.22-.34.15-.51.35-.51.62s.18.47.54.6c.26.09.68.15,1.27.19.86.06,1.43.1,1.71.14.78.1,1.36.3,1.74.57.37.28.57.67.57,1.18,0,.66-.3,1.16-.88,1.52-.59.35-1.43.53-2.53.53-1.6,0-2.83-.34-3.72-1.04l.56-.74c.98.59,2.03.89,3.16.89.73,0,1.3-.1,1.7-.3.38-.2.57-.46.57-.8,0-.39-.25-.66-.76-.78-.27-.07-.98-.14-2.14-.21-1.03-.07-1.75-.21-2.17-.41-.48-.24-.72-.64-.72-1.2s.27-1.03.82-1.37c.55-.34,1.32-.5,2.32-.5,1.35,0,2.48.3,3.38.91l-.63.69v-.02Z"/>
  </symbol>

  <symbol id="icon-cart" viewBox="0 0 24.49 23.82">
    <path fill="currentColor" d="M10.83,19.65c.74,0,1.33.6,1.33,1.33h1.5c0-1.57-1.27-2.83-2.83-2.83v1.5ZM9.5,20.99c0-.74.6-1.33,1.33-1.33v-1.5c-1.57,0-2.83,1.27-2.83,2.83h1.5ZM10.83,22.32c-.74,0-1.33-.6-1.33-1.33h-1.5c0,1.57,1.27,2.83,2.83,2.83v-1.5ZM12.17,20.99c0,.74-.6,1.33-1.33,1.33v1.5c1.57,0,2.83-1.27,2.83-2.83h-1.5Z"/>
    <path fill="currentColor" d="M19.36,19.65c.74,0,1.33.6,1.33,1.33h1.5c0-1.57-1.27-2.83-2.83-2.83v1.5ZM18.03,20.99c0-.74.6-1.33,1.33-1.33v-1.5c-1.57,0-2.83,1.27-2.83,2.83h1.5ZM19.36,22.32c-.74,0-1.33-.6-1.33-1.33h-1.5c0,1.57,1.27,2.83,2.83,2.83v-1.5ZM20.69,20.99c0,.74-.6,1.33-1.33,1.33v1.5c1.57,0,2.83-1.27,2.83-2.83h-1.5Z"/>
    <path fill="currentColor" d="M19.02,3.05c-1.76,0-5.12.01-8.05.02-1.46,0-2.81.01-3.8.01-.49,0-.89,0-1.17,0-.14,0-.25,0-.32,0-.04,0-.06,0-.08,0h-.03s0,0,0,.75q0,.75,0,.75h.03s.05,0,.08,0c.07,0,.18,0,.32,0,.28,0,.68,0,1.17,0,.99,0,2.34,0,3.8-.01,2.92-.01,6.28-.02,8.04-.02v-1.5ZM24.49,6.92c0-.86-.4-1.85-1.31-2.61-.91-.76-2.27-1.26-4.16-1.26v1.5c1.63,0,2.62.43,3.19.91.58.48.77,1.06.77,1.46h1.5ZM20.72,15.84c1.63-1,3.77-3.4,3.77-8.93h-1.5c0,5.08-1.93,6.96-3.05,7.65l.78,1.28ZM18.43,16.48c.8,0,1.59-.2,2.29-.63l-.78-1.28c-.45.27-.97.41-1.51.41v1.5ZM11.45,16.48h6.98v-1.5h-6.98v1.5ZM5,5.54c0,2.32.48,4.98,1.48,7.09.99,2.08,2.61,3.85,4.97,3.85v-1.5c-1.48,0-2.71-1.1-3.61-2.99-.89-1.87-1.33-4.3-1.33-6.45h-1.5ZM2.67.75q-.08.75-.08.75s0,0,0,0h0s0,0,0,0c.01,0,.03,0,.06.01.06.01.15.03.26.07.22.08.52.22.83.47.58.48,1.27,1.45,1.27,3.49h1.5c0-2.43-.85-3.85-1.81-4.64-.47-.39-.94-.61-1.29-.73-.18-.06-.33-.1-.44-.12-.06-.01-.1-.02-.14-.02-.02,0-.03,0-.04,0,0,0-.01,0-.02,0h0s0,0,0,0h0s0,0-.08.75ZM.75,1.5h1.92V0H.75v1.5ZM5.57,3.09c-.41,0-.75.34-.75.75,0,.41.34.75.75.75v-1.5ZM20.33,15.21l-.39-.64h0l.39.64ZM2.67.75L2.75,0s-.05,0-.08,0v.75ZM.75,0c-.41,0-.75.34-.75.75s.34.75.75.75V0Z"/>
  </symbol>

  <symbol id="icon-heart" viewBox="0 0 25.5 23.5">
    <path fill="currentColor" d="M19.79.16c-.97-.23-4.26-.63-7.07,2.11C10.03-.47,6.68-.01,5.6.28,2.81,1.04.16,3.74,0,7.65c-.14,3.65,1.4,6.83,3.73,9.46,2.33,2.62,5.47,4.74,8.63,6.31.21.1.45.1.66,0,2.88-1.38,6.04-3.52,8.46-6.21,2.41-2.69,4.14-5.99,4-9.66-.15-3.91-2.86-6.73-5.7-7.39ZM5.88,1.33l.11.4h0c.92-.25,3.91-.65,6.12,2.12.14.17.35.28.57.28s.44-.09.58-.26c2.4-2.81,5.39-2.43,6.18-2.25h0c2.18.51,4.42,2.75,4.55,5.98.12,3.15-1.36,6.09-3.62,8.61-2.17,2.42-5.01,4.38-7.66,5.69-2.94-1.5-5.77-3.45-7.85-5.79-2.15-2.43-3.48-5.24-3.36-8.4.12-3.22,2.29-5.39,4.48-5.98"/>
  </symbol>

  <symbol id="icon-user" viewBox="0 0 23.31 23.87">
    <path fill="currentColor" d="M11.55,0c-3.55,0-6.43,2.88-6.43,6.43s2.88,6.42,6.43,6.42,6.43-2.88,6.43-6.42S15.1,0,11.55,0ZM11.55,11.35c-2.72,0-4.93-2.21-4.93-4.92S8.83,1.5,11.55,1.5s4.93,2.21,4.93,4.93-2.2,4.92-4.93,4.92Z"/>
    <path fill="currentColor" d="M22.44,18.32h0c-1.22-1.65-4-3.63-10.12-3.77-.02,0-.04-.01-.06-.01h-.97s-.03,0-.04,0c-6.3.09-9.14,2.1-10.38,3.77h0c-.58.78-.87,1.73-.87,2.69v2.11c0,.41.34.75.75.75s.75-.34.75-.75v-2.11c0-.65.2-1.28.58-1.79.89-1.2,3.22-3.08,9.2-3.16.01,0,.02,0,.04,0h.9s.03.01.05.01c5.81.12,8.09,1.98,8.97,3.16.38.52.58,1.14.58,1.79v2.11c0,.41.34.75.75.75s.75-.34.75-.75v-2.11c0-.96-.3-1.9-.87-2.69Z"/>
  </symbol>

  <symbol id="icon-magnifier" viewBox="0 0 22.16 21.92">
    <path fill="currentColor" d="M10.3,1.5c4.86,0,8.8,3.94,8.8,8.8h1.5C20.6,4.61,15.99,0,10.3,0v1.5ZM1.5,10.3C1.5,5.44,5.44,1.5,10.3,1.5V0C4.61,0,0,4.61,0,10.3h1.5ZM10.3,19.1c-4.86,0-8.8-3.94-8.8-8.8H0c0,5.69,4.61,10.3,10.3,10.3v-1.5ZM19.1,10.3c0,4.86-3.94,8.8-8.8,8.8v1.5c5.69,0,10.3-4.61,10.3-10.3h-1.5Z"/>
    <path fill="currentColor" d="M16.63,17.46l4.25,4.25,1.06-1.06-4.25-4.25-1.06,1.06ZM20.88,21.71c.29.29.77.29,1.06,0,.29-.29.29-.77,0-1.06l-1.06,1.06ZM17.7,16.4c-.29-.29-.77-.29-1.06,0-.29.29-.29.77,0,1.06l1.06-1.06Z"/>
  </symbol>

  <symbol id="icon-cart" viewBox="0 0 24.49 23.82">
    <path fill="currentColor" d="M10.83,18.15c-1.57,0-2.83,1.27-2.83,2.83s1.27,2.83,2.83,2.83,2.83-1.27,2.83-2.83-1.27-2.83-2.83-2.83ZM10.83,22.32c-.74,0-1.33-.6-1.33-1.33s.6-1.33,1.33-1.33,1.33.6,1.33,1.33-.6,1.33-1.33,1.33Z"/>
    <path fill="currentColor" d="M19.36,18.15c-1.57,0-2.83,1.27-2.83,2.83s1.27,2.83,2.83,2.83,2.83-1.27,2.83-2.83-1.27-2.83-2.83-2.83ZM19.36,22.32c-.74,0-1.33-.6-1.33-1.33s.6-1.33,1.33-1.33,1.33.6,1.33,1.33-.6,1.33-1.33,1.33Z"/>
    <path fill="currentColor" d="M2.75,0s-.05,0-.08,0H.75c-.41,0-.75.34-.75.75s.34.75.75.75h1.86s.02,0,.04,0c.06.01.15.03.26.07.22.08.52.22.83.47.58.48,1.27,1.45,1.27,3.49,0,2.32.48,4.98,1.48,7.09.99,2.08,2.61,3.85,4.97,3.85h6.98c.8,0,1.59-.2,2.29-.63,1.63-1,3.77-3.4,3.77-8.93,0-.86-.4-1.85-1.31-2.61-.91-.76-2.27-1.26-4.16-1.26-1.76,0-5.12.01-8.05.02-1.46,0-2.81.01-3.8.01-.43,0-.77,0-1.04,0-.34-1.01-.87-1.72-1.45-2.2-.47-.39-.94-.61-1.29-.73-.18-.06-.33-.1-.44-.12-.06-.01-.1-.02-.14-.02-.02,0-.03,0-.04,0,0,0-.01,0-.02,0h0s0,0,0,0h0M19.94,14.56h0c-.45.27-.97.41-1.51.41h-6.98c-1.48,0-2.71-1.1-3.61-2.99-.89-1.87-1.33-4.3-1.33-6.45,0-.34-.02-.65-.05-.95.21,0,.45,0,.73,0,.99,0,2.34,0,3.8-.01,2.92-.01,6.28-.02,8.04-.02,1.63,0,2.62.43,3.19.91.58.48.77,1.06.77,1.46,0,5.08-1.93,6.96-3.05,7.65Z"/>
  </symbol>

  <symbol id="icon-arrow" viewBox="0 0 24.13 24.13">
    <path fill="currentColor" d="M23.38,0H.75c-.41,0-.75.34-.75.75s.34.75.75.75h21.88v21.88c0,.41.34.75.75.75s.75-.34.75-.75V0h-.75Z"/>
    <path fill="currentColor" d="M22.29,1.84c-.29-.29-.77-.29-1.06,0L.22,22.85c-.29.29-.29.77,0,1.06.29.29.77.29,1.06,0L22.29,2.9c.29-.29.29-.77,0-1.06Z"/>
  </symbol>

</svg>